<svg width="33" height="29" viewBox="0 0 33 29" fill="none" xmlns="http://www.w3.org/2000/svg">
<g clip-path="url(#clip0_0_140)">
<path d="M30.4844 9.3938L17.3075 9.34766C18.3418 8.35298 19.9517 6.56564 20.924 5.45202C21.9776 4.2461 22.1143 2.19728 21.2831 0.973934C20.4512 -0.25249 19.0607 -0.312991 18.1276 0.752439C16.593 2.51106 14.361 4.81215 12.5775 6.02421C11.1073 7.02401 9.89632 7.36548 8.3736 9.38252C8.15417 9.74245 7.94435 10.0706 7.75668 10.3844L7.75668 26.5001C7.98498 26.6314 8.21475 26.8437 8.47186 27.0836C9.19517 27.7573 10.0943 28.5972 11.8054 28.6033L20.6787 28.6351C21.7751 28.6392 22.6691 27.3984 22.6721 25.8705C22.6728 25.1999 22.5021 24.56 22.1881 24.0535C23.207 23.9448 24.0219 22.7378 24.0241 21.2981C24.0256 20.5095 23.7877 19.764 23.3688 19.2359C24.5376 19.24 25.0237 17.8126 25.0252 16.7247C25.0267 16.0499 24.8546 15.4141 24.5487 14.9178L30.494 14.9373C31.1286 14.9394 31.603 14.4482 31.603 14.4482C32.1445 13.9303 32.4659 13.0895 32.4674 12.1727C32.4704 10.6448 31.5808 9.3979 30.4844 9.3938Z" fill="#F2F2F2"/>
<path d="M6.98181 26.7065L6.98181 9.68623C6.98181 8.85357 6.49567 8.17883 5.89574 8.17883L1.086 8.17883C0.486071 8.17883 -7.63148e-05 8.85357 -7.63406e-05 9.68623L-7.68678e-05 26.7065C-7.68936e-05 27.5391 0.48607 28.2138 1.086 28.2138L5.89574 28.2138C6.49567 28.2149 6.98181 27.5391 6.98181 26.7065ZM2.41514 25.1642C2.41514 24.3397 2.89685 23.6712 3.49087 23.6712C4.08488 23.6712 4.56659 24.3397 4.56659 25.1642C4.56659 25.9886 4.08488 26.6572 3.49087 26.6572C2.89685 26.6562 2.41514 25.9886 2.41514 25.1642Z" fill="#F2F2F2"/>
</g>
<defs>
<clipPath id="clip0_0_140">
<rect width="28.6364" height="32.4676" fill="white" transform="translate(32.4674) rotate(90)"/>
</clipPath>
</defs>
</svg>
